<?xml version="1.0" encoding="UTF-8" standalone="no"?>
<!-- Uploaded to: SVG Repo, www.svgrepo.com, Generator: SVG Repo Mixer Tools -->

<svg
   fill="#000000"
   width="800px"
   height="800px"
   viewBox="-2 0 32 32"
   preserveAspectRatio="xMidYMid"
   version="1.1"
   id="svg19933"
   sodipodi:docname="start-svgrepo-com.svg"
   inkscape:version="1.1.2 (0a00cf5339, 2022-02-04)"
   xmlns:inkscape="http://www.inkscape.org/namespaces/inkscape"
   xmlns:sodipodi="http://sodipodi.sourceforge.net/DTD/sodipodi-0.dtd"
   xmlns="http://www.w3.org/2000/svg"
   xmlns:svg="http://www.w3.org/2000/svg">
  <defs
     id="defs19937" />
  <sodipodi:namedview
     id="namedview19935"
     pagecolor="#ffffff"
     bordercolor="#666666"
     borderopacity="1.0"
     inkscape:pageshadow="2"
     inkscape:pageopacity="0.0"
     inkscape:pagecheckerboard="0"
     showgrid="false"
     inkscape:zoom="0.328125"
     inkscape:cx="830.47619"
     inkscape:cy="505.90476"
     inkscape:window-width="1366"
     inkscape:window-height="701"
     inkscape:window-x="0"
     inkscape:window-y="0"
     inkscape:window-maximized="1"
     inkscape:current-layer="svg19933" />
  <path
     d="M26.530,31.994 C26.222,31.994 25.915,31.903 25.619,31.722 L2.000,17.205 L2.000,31.000 C2.000,31.553 1.552,32.000 1.000,32.000 C0.448,32.000 -0.000,31.553 -0.000,31.000 L-0.000,1.006 C-0.000,0.453 0.448,0.006 1.000,0.006 C1.552,0.006 2.000,0.453 2.000,1.006 L2.000,13.855 L25.628,0.248 C25.917,0.083 26.211,-0.000 26.507,-0.000 C27.372,-0.000 28.000,0.689 28.000,1.639 L28.000,30.367 C28.000,31.435 27.260,31.994 26.530,31.994 ZM3.097,15.531 L26.000,29.608 L26.000,2.341 L3.097,15.531 Z"
     id="path19931"
     style="fill:#02a7f0;fill-opacity:1" />
  <path
     style="fill:#02a7f0;stroke:#02a7f0;stroke-width:0.284;stroke-linecap:butt;stroke-linejoin:miter;stroke-opacity:1;fill-opacity:1;stroke-miterlimit:4;stroke-dasharray:none"
     d="M 3.097,15.531 26,2.341 v 27.267 z"
     id="path20065" />
</svg>
